<svg xmlns="http://www.w3.org/2000/svg" version="1.1" xmlns:xlink="http://www.w3.org/1999/xlink" xmlns:svgjs="http://svgjs.dev/svgjs" width="1500" height="1500" viewBox="0 0 1500 1500"><g transform="matrix(1,0,0,1,0,0)"><svg viewBox="0 0 280 280" data-background-color="#ffffff" preserveAspectRatio="xMidYMid meet" height="1500" width="1500" xmlns="http://www.w3.org/2000/svg" xmlns:xlink="http://www.w3.org/1999/xlink"><g id="tight-bounds" transform="matrix(1,0,0,1,0,0)"><svg viewBox="0 0 280 280" height="280" width="280"><g><svg viewBox="0 0 280 280" height="280" width="280"><g><svg viewBox="0 0 280 280" height="280" width="280"><g id="textblocktransform"><svg viewBox="0 0 280 280" height="280" width="280" id="textblock"><g><svg viewBox="0 0 280 280" height="280" width="280"><g transform="matrix(1,0,0,1,98.9782532938364,90.50252531694167)"><svg viewBox="0 0 82.0434934123272 98.99494936611666" height="98.99494936611666" width="82.0434934123272"><g id="icon-0"><svg xmlns="http://www.w3.org/2000/svg" xmlns:xlink="http://www.w3.org/1999/xlink" version="1.1" x="0" y="0" viewBox="12.587194438018164 2 102.93456890517247 124.20244449585476" style="enable-background:new 0 0 128 128;" xml:space="preserve" height="98.99494936611666" width="82.0434934123272" class="icon-xg-0" data-fill-palette-color="accent" id="xg-0"><g fill="#0718c4" data-fill-palette-color="accent"><g fill="#0718c4" data-fill-palette-color="accent"><g fill="#0718c4" data-fill-palette-color="accent"><g fill="#0718c4" data-fill-palette-color="accent"><path d="M115.4 114.7c-2.3-8.8-4.1-15.6-4.1-15.6 0 0 0 0 0 0-0.1-0.8-0.2-1.6-0.3-2.3-1.6-13.1-2.6-26.4-2.7-39.6 0-1.1 0-2.3-0.3-3.4 0.2 0 0.5 0 0.7 0 1.7 0 3.1-0.7 4-1.8 1.3-1.7 1.4-4 0.1-7.1-1.9-4.6-4.4-8.8-6.9-12.9l-0.2-0.3c-1.1-1.8-2.2-3.6-3.2-5.5l-0.9-1.6c-1.1-2-2.3-4.1-3.6-6.1-0.6-0.8-1.2-1.6-1.8-2.3l-0.1-0.1c-0.1-0.1-0.1-0.2-0.2-0.2-0.1-0.1-0.2-0.3-0.3-0.4-1.1-1.2-1.9-2.2-2.4-3.3-0.1-0.2-0.2-0.4-0.2-0.5-0.5-1.8-0.8-3.3-1-4.7l0-0.1c-0.3-2.4-2.3-4.2-4.7-4.2L58.2 2c-1.3 0-2.5 0.4-3.4 1.3-0.9 0.9-1.5 2.1-1.5 3.4C53.2 14.2 53 20.2 53 22.1l0 0.6c-0.1 0.8-0.3 1.5-0.4 2.2-0.8 5.3-1.8 10.7-2.8 16-0.2-0.2-0.4-0.4-0.6-0.5-0.9-0.7-1.8-0.9-2.7-0.7-2 0.5-3.6 3.1-4.7 5.3-1.8 3.4-3 7.2-4.3 10.9-0.3 0.8-0.5 1.6-0.8 2.4-2.6 7.5-5.7 14.8-9.4 21.9-0.1 0.2-0.3 0.4-0.4 0.5-0.5 0.3-1 0-1.4-0.7-1.5-2.5-2-5.5-2.4-8.5-0.5-3.6-1.1-7.3-3.7-9.8-0.5-0.5-1.1-0.9-1.7-1.1-1.1-0.5-2.2-0.5-3 0-1.3 0.7-2 2.3-2.1 5-0.1 4.9 0.4 9.8 1 14.5 0.3 2.2 0.5 4.4 0.7 6.6l0.1 1.5c0.2 2.4 0.4 4.8 0.8 7.2 0.2 0.9 0.4 1.8 0.7 2.7l0 0.1c0.1 0.3 0.1 0.5 0.2 0.8 0.4 1.5 0.9 3 0.9 4.5 0 0.3 0 0.5-0.1 0.8-0.3 1.7-0.6 3.3-1.1 4.9v0c-0.5 1.6 0.2 3.2 1.7 3.9l26.4 12.6c1.6 0.8 3.5 0.1 4.3-1.5 3.9-8.2 6.9-14.5 6.9-14.5 0 0 0 0 0 0 0.5-0.7 0.9-1.3 1.3-1.9 0.5-0.8 1.1-1.6 1.6-2.5-3.4-3.3-7-6.6-10-10.5-2.4-3.1-3.1-5.9-2-8.5 0.7-1.8 2.3-3.1 4.3-3.7l0.1 0c1-0.3 2.1-0.4 3.1-0.3 1.6 0.1 3 0.5 4.4 1.1 0 0 0 0 0 0 0.5 0.4 1.1 0.7 1.6 0.9 0 0 0 0 0 0 1.9 1.1 3.5 2.6 5.1 4 0.8 0.7 1.6 1.4 2.3 2-0.6-2.5-1.3-5-2.1-7.5 0.9-1.2 1.3-2.7 1.6-4.2 0.1-0.3 0.1-0.5 0.1-0.8 1.9 5.5 3.4 11.1 4.7 16.8 0 0.2 0 0.5 0 0.7-0.2 0.5-0.7 0.7-1.5 0.4-2.8-0.9-5.1-3-7.3-4.9-2.7-2.4-5.6-4.9-9.2-5.1-0.7 0-1.4 0.1-2 0.2-1.1 0.3-2 1-2.3 1.9-0.6 1.4-0.1 3.1 1.6 5.2 3 3.8 6.6 7.2 10.1 10.5 1.6 1.5 3.2 3 4.7 4.6l1.1 1.1c1.7 1.7 3.4 3.4 5.2 5 0.7 0.6 1.5 1.1 2.2 1.6l0.1 0c0.2 0.2 0.5 0.3 0.7 0.5 1.3 0.8 2.6 1.7 3.6 2.9 0.2 0.2 0.3 0.4 0.5 0.6 0.9 1.5 1.7 2.9 2.3 4.4v0c0.7 1.5 2.2 2.3 3.8 1.9l28.4-7.3C114.8 118.2 115.9 116.4 115.4 114.7zM63.2 77.8c-0.3 1.5-0.7 2.8-1.5 3.3-0.4 0.2-0.9 0.1-1.2 0-0.7-0.2-1.4-0.9-1.7-1.6-0.6-1.4-0.5-2.9-0.2-5.5l0.7-5.3 1.1-8.3 1.2-9.1c0.1-1-0.2-1.9-0.9-2.4-0.4-0.3-1.2-0.7-2.3-0.1-1.5 0.8-2 2.5-2.3 3.6-0.1 0.3-0.1 0.5-0.2 0.7l-4.2 12.7c-0.4 1.2-0.8 2.3-1.4 3-0.4 0.4-1.2 1.1-1.9 0.8-0.1 0-0.4-0.2-0.5-0.3l0-0.1c-0.1-0.1-0.2-0.2-0.3-0.4-0.2-0.3-0.3-0.7-0.4-1.1 0-0.2 0-0.5 0-0.7 0-0.8 0.3-1.7 0.5-2.7l0-0.1c3.4-12.7 6.2-25.8 8.2-39 0.1-0.6 0.2-1.1 0.3-1.7l0.1-0.1v-0.7c0 0 0.1-7 0.3-16.1 0-0.4 0.2-0.8 0.5-1.1 0.3-0.3 0.7-0.4 1.1-0.4l29.3 0.7c0.8 0 1.4 0.6 1.6 1.5l0 0.1c0.2 1.5 0.6 3.2 1.1 5 0.1 0.3 0.2 0.7 0.4 1 0.8 1.7 2 3 2.9 4.1 0.1 0.1 0.2 0.2 0.3 0.3 0.1 0.1 0.2 0.2 0.3 0.3l0.1 0.1c0.6 0.7 1.1 1.3 1.5 2 1.2 1.9 2.4 3.9 3.4 5.8l0.9 1.6c1 1.9 2.2 3.8 3.2 5.6l0.2 0.3c2.4 4 4.9 8.2 6.7 12.5 0.8 1.9 0.9 3.2 0.3 3.8-0.4 0.5-1 0.6-1.5 0.6-0.5 0-1.1-0.1-1.5-0.2-2.9-1-4.8-4-6.6-6.8-1.7-2.6-3.4-5.4-6.1-7.2-1.7-1.1-3.1-0.5-3.7 0.3-0.3 0.4-0.5 0.9-0.5 1.5-0.1 1.6-0.2 3.3-0.2 4.9-0.2 6.4 0 12.8 0.6 19.1 0 0.6 0.1 1.3 0.2 1.9l0.1 0.7c0.4 3.7 0.8 7.6 0.6 11.4-0.1 1.1-0.2 4.6-1.5 5.6-0.3 0.2-0.7 0.4-1.5 0.2-1.3-0.3-2-1.7-2.2-2.1-0.5-1.2-0.7-2.6-0.8-4.1l-1.5-15.9-0.5-5c-0.1-1.4-0.8-2.5-1.8-3.1-0.4-0.2-0.8-0.4-1.3-0.4 0 0 0 0 0 0-1.1 0-2.4 0.8-2.6 2.9-0.4 4.2-0.2 8.4 0.1 12.5l0 0.4c0.1 1.9 0.2 3.8 0.3 5.7 0 1.4 0 2.7 0 4.1-0.1 1.4-0.2 2.8-0.4 4.2-0.3 2.2-1.3 4.4-2.7 4.5-1 0-1.8-0.8-2.2-1.5-0.9-1.6-1-3.7-1-5.6l0-0.7c-0.1-2.5-0.1-4.9-0.1-8 0-1.6 0.1-3.3 0.1-4.9l0-1.8c0.1-2.4 0.1-4.9 0.1-7.4 0-0.1 0-0.2 0-0.4 0-0.8 0-2.2-0.8-3.1-0.2-0.2-0.4-0.4-0.7-0.5-0.5-0.3-1-0.4-1.4-0.4-0.4 0-0.7 0.1-0.9 0.2-0.4 0.2-0.8 0.5-1 1.2-0.1 0.2-0.2 0.5-0.2 0.9C66.1 61.5 64.8 69.7 63.2 77.8z" fill="#0718c4" data-fill-palette-color="accent"></path></g></g></g></g></svg></g></svg></g><g id="text-0"><path d="M26.605 93.429l3.874-0.947c0.675 1.533 1.058 3.121 1.149 4.764 0.097 1.645-0.14 3.291-0.712 4.939v0c-0.615 1.774-1.598 3.279-2.949 4.513-1.349 1.229-2.911 2.039-4.687 2.432-1.782 0.39-3.598 0.264-5.448-0.377v0c-1.749-0.606-3.21-1.581-4.384-2.926-1.174-1.344-1.942-2.863-2.306-4.558-0.364-1.695-0.264-3.353 0.299-4.975v0c0.426-1.229 0.991-2.212 1.692-2.948 0.702-0.736 1.558-1.32 2.567-1.75v0l-1.844-0.64 1.176-3.393 6.473 2.244-0.547 2.1c-2.59 0.571-4.282 2.001-5.075 4.288v0c-0.562 1.622-0.506 3.139 0.168 4.551 0.679 1.421 1.826 2.411 3.441 2.972v0c1.109 0.384 2.176 0.47 3.201 0.258 1.023-0.206 1.917-0.645 2.682-1.317 0.763-0.665 1.327-1.485 1.693-2.458v0c0.4-1.153 0.546-2.26 0.438-3.319-0.108-1.06-0.408-2.211-0.901-3.453z" fill="#0718c4" data-fill-palette-color="primary"></path><path d="M42.534 79.135c-1.016 1.611-2.323 2.892-3.921 3.842-1.602 0.956-3.326 1.446-5.174 1.471-1.847 0.025-3.613-0.494-5.297-1.556v0c-1.679-1.059-2.906-2.427-3.68-4.104-0.774-1.677-1.075-3.445-0.902-5.303 0.169-1.852 0.761-3.583 1.777-5.194v0c0.987-1.566 2.285-2.832 3.895-3.8 1.605-0.962 3.337-1.464 5.194-1.505 1.854-0.036 3.621 0.475 5.3 1.534v0c1.685 1.062 2.918 2.427 3.699 4.093 0.781 1.666 1.085 3.428 0.913 5.285-0.172 1.858-0.774 3.603-1.804 5.237zM39.135 76.944c0.844-1.339 1.074-2.748 0.691-4.226-0.389-1.482-1.367-2.717-2.933-3.705v0c-1.566-0.987-3.098-1.335-4.598-1.044-1.5 0.291-2.672 1.106-3.516 2.445v0c-0.855 1.356-1.091 2.773-0.707 4.252 0.384 1.479 1.358 2.712 2.924 3.699v0c1.566 0.987 3.101 1.337 4.607 1.049 1.5-0.291 2.677-1.115 3.532-2.47z" fill="#0718c4" data-fill-palette-color="primary"></path><path d="M78.818 37.95l2.748-2.25 2.562 3.13-9.193 7.525-2.562-3.129 2.499-2.046-4.372-5.34c-0.756-0.924-1.594-1.486-2.512-1.687-0.915-0.196-1.795 0.052-2.641 0.745v0c-1.578 1.291-2.369 3.521-2.375 6.69v0l0.153 0.186 4.422 5.403 2.491-2.04 2.561 3.13-9.029 7.391-2.562-3.129 2.585-2.115-4.372-5.34c-0.756-0.924-1.599-1.482-2.528-1.675-0.925-0.188-1.821 0.073-2.687 0.783v0c-0.778 0.637-1.371 1.534-1.776 2.689-0.402 1.161-0.597 2.543-0.585 4.145v0l4.498 5.496 2.553-2.09 2.562 3.129-9.66 7.908-2.562-3.13 3.153-2.58-7.06-8.625-3.153 2.581-2.555-3.122 7.107-5.817 2.504 3.059c-0.031-1.838 0.24-3.481 0.813-4.93 0.569-1.454 1.432-2.655 2.59-3.602v0c1.199-0.981 2.483-1.487 3.854-1.517 1.366-0.026 2.735 0.435 4.109 1.382v0c-0.095-1.959 0.133-3.718 0.683-5.279 0.551-1.561 1.439-2.842 2.664-3.845v0c1.598-1.308 3.33-1.76 5.196-1.355 1.861 0.41 3.679 1.699 5.455 3.869v0z" fill="#0718c4" data-fill-palette-color="primary"></path><path d="M123.401 22.467l3.399-1.026 1.169 3.871-11.374 3.433-1.169-3.871 3.092-0.933-1.994-6.607c-0.345-1.143-0.903-1.983-1.675-2.521-0.77-0.531-1.678-0.639-2.725-0.323v0c-1.952 0.589-3.537 2.346-4.755 5.271v0l0.069 0.231 2.018 6.684 3.081-0.93 1.169 3.871-11.171 3.372-1.169-3.871 3.197-0.965-1.994-6.607c-0.345-1.143-0.91-1.981-1.694-2.515-0.783-0.527-1.71-0.629-2.782-0.305v0c-0.963 0.291-1.853 0.892-2.671 1.804-0.816 0.919-1.525 2.12-2.127 3.605v0l2.052 6.799 3.159-0.953 1.168 3.871-11.951 3.608-1.169-3.872 3.901-1.177-3.221-10.67-3.9 1.177-1.166-3.862 8.793-2.654 1.142 3.785c0.675-1.71 1.554-3.124 2.639-4.243 1.082-1.125 2.339-1.904 3.771-2.336v0c1.483-0.448 2.864-0.423 4.141 0.074 1.271 0.499 2.36 1.449 3.267 2.849v0c0.662-1.846 1.546-3.384 2.652-4.615 1.107-1.231 2.418-2.075 3.933-2.532v0c1.977-0.597 3.75-0.351 5.319 0.738 1.562 1.091 2.748 2.978 3.558 5.661v0z" fill="#0718c4" data-fill-palette-color="primary"></path><path d="M157.577 16.75l-0.141 4.283-5.138-0.169-0.188 5.711-5.108-0.169 0.189-5.711-14.85-0.489 0.141-4.283 15.27-15.923 5.228 0.172-0.541 16.409zM137.75 16.096l9.582 0.316 0.357-10.818z" fill="#0718c4" data-fill-palette-color="primary"></path><path d="M187.229 30.638l-0.053 3.781c-1.2 0.208-2.374 0.136-3.521-0.215v0c-1.276-0.391-2.233-1.069-2.87-2.035-0.643-0.968-0.864-2.116-0.661-3.443v0c-1.706 1.014-3.247 1.685-4.625 2.015-1.385 0.333-2.742 0.297-4.069-0.109v0c-2.135-0.653-3.558-1.885-4.267-3.694-0.713-1.817-0.64-4.13 0.219-6.939v0l1.972-6.445-3.395-1.039 1.18-3.857 8.282 2.534-3.129 10.225c-0.398 1.302-0.436 2.398-0.112 3.29 0.321 0.898 1.133 1.546 2.435 1.945v0c1.719 0.526 3.9-0.002 6.544-1.585v0l2.211-7.224-3.078-0.942 1.18-3.858 7.955 2.435-4.035 13.188c-0.302 0.988-0.075 1.597 0.681 1.828v0c0.417 0.128 0.802 0.175 1.156 0.144z" fill="#0718c4" data-fill-palette-color="primary"></path><path d="M214.987 47.299l2.956 1.894-2.182 3.405-10.071-6.454 2.182-3.405 2.821 1.808 3.588-5.599c0.706-1.101 0.971-2.162 0.796-3.181-0.173-1.011-0.798-1.862-1.877-2.553v0c-1.739-1.115-4.351-1.172-7.836-0.171v0l-3.674 5.734 2.778 1.78-2.182 3.405-10.511-6.736 2.182-3.405 3.43 2.198 6.014-9.384-3.43-2.198 2.177-3.396 7.732 4.955-2.377 3.71c2.134-0.608 3.984-0.884 5.549-0.829 1.569 0.05 3.006 0.493 4.31 1.329v0c1.971 1.263 3.065 2.868 3.282 4.816 0.223 1.951-0.46 4.166-2.048 6.644v0z" fill="#0718c4" data-fill-palette-color="primary"></path><path d="M240.429 44.947c-0.704-0.719-1.096-1.513-1.176-2.382-0.09-0.869 0.145-1.578 0.706-2.126v0c0.604-0.591 1.339-0.832 2.206-0.723 0.867 0.1 1.652 0.509 2.355 1.228v0c0.746 0.762 1.154 1.573 1.226 2.432 0.081 0.859-0.181 1.584-0.785 2.175v0c-0.58 0.568-1.294 0.797-2.142 0.688-0.848-0.099-1.645-0.53-2.39-1.292zM229.045 60.21l2.884 2.948-2.89 2.828-9.308-9.512 2.89-2.829 2.85 2.912 7.966-7.795-2.849-2.912 2.883-2.821 6.424 6.565z" fill="#0718c4" data-fill-palette-color="primary"></path><path d="M245.461 80.269l-2.164 3.573c-1.065-0.463-2.033-1.022-2.906-1.68-0.872-0.657-1.675-1.528-2.406-2.611v0c-1.28-1.895-1.691-3.794-1.236-5.696 0.456-1.902 1.745-3.569 3.869-5.003v0l6.261-4.227-2.257-3.343 3.343-2.257 2.257 3.343 4.436-2.994 2.859 4.235-4.435 2.995 3.287 4.869-3.343 2.257-3.288-4.869-6.294 4.249c-0.995 0.672-1.593 1.403-1.796 2.195-0.202 0.792-0.021 1.604 0.542 2.438v0c0.383 0.567 0.83 1.038 1.342 1.413 0.517 0.371 1.16 0.742 1.929 1.113z" fill="#0718c4" data-fill-palette-color="primary"></path><path d="M270.872 103.957l-3.743 1.504-0.96-2.39-18.432-0.866c-3.051-0.147-5.471-0.675-7.259-1.582-1.791-0.914-3.067-2.317-3.827-4.208v0c-0.415-1.033-0.626-2.018-0.634-2.954-0.008-0.936 0.093-2.018 0.301-3.244v0l4.346 0.401c-0.135 0.762-0.209 1.475-0.225 2.139-0.009 0.661 0.119 1.322 0.384 1.981v0c0.435 1.083 1.144 1.904 2.128 2.463 0.99 0.556 2.378 0.873 4.165 0.95v0l0.127-0.008 11.589-13.33-1.031-2.567 3.743-1.504 4.152 10.333-3.37 1.354-1.11-2.763-8.252 8.683 11.89 0.372-1.05-2.614 3.37-1.354z" fill="#0718c4" data-fill-palette-color="primary"></path><path d="M20.496 194.954l-2.481 3.185c-1.504-0.79-2.811-1.813-3.922-3.066-1.109-1.247-1.954-2.707-2.535-4.379v0c-0.626-1.799-0.789-3.613-0.489-5.444 0.3-1.83 1.036-3.46 2.208-4.89 1.165-1.428 2.688-2.469 4.569-3.123v0c1.773-0.617 3.549-0.759 5.326-0.427 1.784 0.331 3.353 1.056 4.709 2.175 1.355 1.119 2.319 2.502 2.892 4.149v0c0.434 1.248 0.603 2.386 0.506 3.413-0.097 1.028-0.412 2.029-0.947 3.003v0l1.872-0.651 1.2 3.449-6.565 2.284-0.883-2.015c1.703-2.084 2.151-4.288 1.342-6.612v0c-0.571-1.64-1.571-2.812-3.001-3.515-1.43-0.702-2.966-0.768-4.607-0.197v0c-1.121 0.39-2.024 0.988-2.709 1.795-0.683 0.813-1.117 1.727-1.303 2.743-0.188 1.01-0.122 2.016 0.198 3.02v0c0.408 1.172 0.988 2.145 1.741 2.92 0.752 0.775 1.712 1.502 2.879 2.183z" fill="#0718c4" data-fill-palette-color="primary"></path><path d="M25.176 217.843c-1.03-1.634-1.632-3.391-1.803-5.273-0.172-1.882 0.132-3.675 0.911-5.38 0.789-1.703 2.037-3.093 3.745-4.171v0c1.702-1.073 3.491-1.599 5.367-1.578 1.88 0.027 3.63 0.525 5.249 1.495 1.624 0.966 2.951 2.265 3.982 3.899v0c1.002 1.588 1.592 3.329 1.771 5.221 0.188 1.895-0.108 3.7-0.89 5.415-0.782 1.714-2.024 3.108-3.725 4.181v0c-1.707 1.077-3.496 1.611-5.366 1.601-1.864-0.014-3.608-0.503-5.232-1.469-1.628-0.971-2.964-2.285-4.009-3.941zM28.669 215.687c0.855 1.356 2.046 2.182 3.574 2.479 1.524 0.291 3.08-0.064 4.668-1.066v0c1.588-1.002 2.576-2.251 2.964-3.748 0.39-1.507 0.157-2.938-0.698-4.294v0c-0.869-1.378-2.066-2.213-3.59-2.504-1.522-0.301-3.077 0.05-4.665 1.051v0c-1.588 1.002-2.577 2.256-2.967 3.763-0.393 1.501-0.155 2.941 0.714 4.319z" fill="#0718c4" data-fill-palette-color="primary"></path><path d="M72.008 256.917l2.788 2.28-2.597 3.177-9.331-7.627 2.598-3.178 2.531 2.069 4.425-5.413c0.773-0.945 1.166-1.892 1.18-2.842 0.009-0.954-0.412-1.779-1.263-2.475v0c-1.604-1.312-3.986-1.651-7.145-1.02v0l-0.152 0.187-4.483 5.483 2.532 2.069-2.598 3.178-9.167-7.494 2.598-3.178 2.624 2.146 4.425-5.413c0.773-0.945 1.161-1.897 1.165-2.855-0.001-0.963-0.441-1.803-1.318-2.52v0c-0.789-0.645-1.8-1.051-3.032-1.218-1.237-0.171-2.652-0.089-4.243 0.247v0l-4.559 5.577 2.593 2.12-2.597 3.178-9.814-8.023 2.598-3.177 3.209 2.623 7.156-8.754-3.209-2.623 2.592-3.17 7.22 5.902-2.541 3.107c1.824-0.398 3.514-0.458 5.072-0.18 1.557 0.268 2.924 0.884 4.103 1.847v0c1.22 0.997 1.979 2.172 2.277 3.524 0.303 1.356 0.121 2.814-0.547 4.373v0c1.933-0.49 3.732-0.618 5.394-0.384 1.663 0.233 3.115 0.857 4.356 1.872v0c1.625 1.329 2.421 2.962 2.387 4.9-0.03 1.933-0.945 4.001-2.744 6.202v0z" fill="#0718c4" data-fill-palette-color="primary"></path><path d="M120.707 274.358l3.45 1.033-1.177 3.932-11.545-3.457 1.177-3.932 3.132 0.938 2.006-6.698c0.35-1.169 0.349-2.195-0.002-3.077-0.358-0.884-1.064-1.484-2.118-1.8v0c-1.985-0.595-4.314 0.007-6.988 1.803v0l-0.069 0.231-2.032 6.785 3.132 0.938-1.177 3.931-11.343-3.397 1.178-3.931 3.247 0.972 2.006-6.697c0.35-1.169 0.343-2.197-0.022-3.084-0.371-0.888-1.099-1.495-2.185-1.82v0c-0.977-0.292-2.066-0.279-3.267 0.041-1.208 0.317-2.482 0.937-3.823 1.858v0l-2.066 6.9 3.209 0.961-1.178 3.932-12.142-3.637 1.178-3.931 3.97 1.189 3.244-10.832-3.97-1.189 1.174-3.922 8.933 2.675-1.151 3.845c1.531-1.068 3.069-1.773 4.613-2.115 1.54-0.351 3.039-0.308 4.498 0.129v0c1.51 0.452 2.662 1.245 3.456 2.379 0.801 1.136 1.192 2.552 1.175 4.248v0c1.597-1.195 3.208-2.004 4.833-2.428 1.625-0.423 3.205-0.405 4.741 0.055v0c2.011 0.602 3.373 1.805 4.086 3.607 0.715 1.796 0.665 4.056-0.151 6.781v0z" fill="#0718c4" data-fill-palette-color="primary"></path><path d="M158.116 269.486l0.155 4.343-5.218 0.186 0.207 5.801-5.177 0.184-0.207-5.801-15.07 0.537-0.155-4.343 14.357-17.17 5.298-0.189 0.593 16.638zM138 270.203l9.721-0.347-0.39-10.968z" fill="#0718c4" data-fill-palette-color="primary"></path><path d="M190.934 265.843l2.117 3.211c-0.889 0.85-1.913 1.453-3.074 1.81v0c-1.295 0.399-2.487 0.378-3.578-0.065-1.091-0.443-1.929-1.282-2.514-2.519v0c-0.856 1.822-1.769 3.265-2.739 4.329-0.968 1.071-2.125 1.813-3.471 2.228v0c-2.166 0.668-4.064 0.443-5.693-0.676-1.629-1.119-2.883-3.101-3.76-5.946v0l-2.016-6.537-3.441 1.061-1.207-3.912 8.383-2.585 3.195 10.363c0.407 1.32 1.004 2.266 1.791 2.837 0.778 0.567 1.828 0.647 3.148 0.24v0c1.743-0.538 3.276-2.224 4.598-5.06v0l-2.259-7.325-3.124 0.963-1.207-3.912 8.075-2.49 4.124 13.371c0.31 1.006 0.847 1.392 1.609 1.157v0c0.423-0.13 0.771-0.311 1.043-0.543z" fill="#0718c4" data-fill-palette-color="primary"></path><path d="M221.399 247.883l2.994-1.927 2.221 3.451-10.201 6.566-2.221-3.451 2.85-1.835-3.653-5.676c-0.715-1.111-1.579-1.803-2.592-2.076-1.01-0.267-2.058-0.051-3.147 0.65v0c-1.765 1.136-2.921 3.523-3.467 7.16v0l3.74 5.811 2.817-1.813 2.222 3.451-10.659 6.86-2.221-3.451 3.485-2.243-6.119-9.508-3.485 2.243-2.216-3.443 7.841-5.047 2.417 3.756c0.341-2.221 0.867-4.043 1.579-5.466 0.708-1.428 1.721-2.567 3.04-3.417v0c1.996-1.285 3.944-1.617 5.843-0.996 1.889 0.618 3.642 2.182 5.257 4.691v0z" fill="#0718c4" data-fill-palette-color="primary"></path><path d="M221.466 222.3c-0.712 0.729-1.506 1.149-2.382 1.259-0.876 0.11-1.602-0.116-2.178-0.679v0c-0.609-0.595-0.872-1.334-0.787-2.217 0.089-0.878 0.49-1.682 1.202-2.411v0c0.754-0.772 1.565-1.209 2.431-1.31 0.871-0.096 1.612 0.154 2.222 0.749v0c0.595 0.581 0.848 1.301 0.758 2.161-0.089 0.859-0.511 1.675-1.266 2.448zM237.214 233.502l2.924-2.994 2.936 2.867-9.439 9.666-2.936-2.867 2.895-2.966-8.089-7.899-2.896 2.965-2.929-2.861 6.515-6.671z" fill="#0718c4" data-fill-palette-color="primary"></path><path d="M252.769 210.609l4.189 0.682c-0.034 1.175-0.195 2.301-0.485 3.376-0.286 1.07-0.801 2.154-1.545 3.254v0c-1.3 1.922-2.931 3.025-4.895 3.309-1.962 0.292-4.019-0.288-6.169-1.742v0l-6.35-4.293-2.299 3.4-3.392-2.293 2.299-3.4-4.501-3.042 2.902-4.292 4.5 3.042 3.335-4.934 3.392 2.293-3.335 4.934 6.384 4.316c1.006 0.68 1.921 0.967 2.745 0.86 0.825-0.106 1.524-0.584 2.099-1.435v0c0.387-0.572 0.658-1.17 0.813-1.794 0.158-0.63 0.263-1.377 0.313-2.241z" fill="#0718c4" data-fill-palette-color="primary"></path><path d="M252.942 174.831l3.796 1.534-0.976 2.416 12.876 13.597c2.124 2.261 3.519 4.351 4.183 6.269 0.668 1.926 0.615 3.85-0.161 5.771v0c-0.424 1.051-0.963 1.918-1.615 2.603-0.649 0.693-1.483 1.415-2.503 2.167v0l-2.886-3.357c0.634-0.46 1.189-0.93 1.665-1.41 0.474-0.474 0.845-1.044 1.114-1.709v0c0.445-1.101 0.502-2.202 0.173-3.304-0.329-1.102-1.122-2.308-2.378-3.619v0l-0.097-0.083-17.849 1.59-1.055 2.611-3.796-1.533 4.234-10.484 3.414 1.379-1.13 2.798 12.142-0.542-8.435-8.636-1.074 2.658-3.413-1.379z" fill="#0718c4" data-fill-palette-color="primary"></path><path d="M2.329 142.986c0-6.029 4.888-10.917 10.918-10.917 6.029 0 10.917 4.888 10.917 10.917 0 6.029-4.888 10.917-10.917 10.918-6.029 0-10.917-4.888-10.918-10.918z" fill="#0718c4" data-fill-palette-color="primary"></path><path d="M255.836 142.986c0-6.029 4.888-10.917 10.917-10.917 6.029 0 10.917 4.888 10.918 10.917 0 6.029-4.888 10.917-10.918 10.918-6.029 0-10.917-4.888-10.917-10.918z" fill="#0718c4" data-fill-palette-color="primary"></path></g><g id="text-1"></g></svg></g></svg></g></svg></g></svg></g><defs></defs></svg><rect width="280" height="280" fill="none" stroke="none" visibility="hidden"></rect></g></svg></g></svg>